<?xml version="1.0" encoding="UTF-8" ?>
<!DOCTYPE svg PUBLIC "-//W3C//DTD SVG 1.1//EN" "http://www.w3.org/Graphics/SVG/1.1/DTD/svg11.dtd">
<svg width="421pt" height="110pt" viewBox="0 0 421 110" version="1.1" xmlns="http://www.w3.org/2000/svg">
<g id="#ffffffff">
<path fill="#ffffff" opacity="1.00" d=" M 35.26 35.31 C 47.94 35.31 60.61 35.30 73.28 35.31 C 73.28 40.40 73.30 45.49 73.28 50.59 C 68.95 54.11 64.63 57.65 60.30 61.18 C 56.29 61.17 52.29 61.17 48.28 61.18 C 54.07 56.42 59.88 51.69 65.69 46.95 C 65.69 45.61 65.68 44.27 65.68 42.93 C 58.08 42.92 50.48 42.93 42.88 42.93 C 42.88 45.46 42.88 48.00 42.87 50.54 C 40.34 50.53 37.80 50.53 35.27 50.53 C 35.26 45.46 35.26 40.38 35.26 35.31 Z" />
<path fill="#ffffff" opacity="1.00" d=" M 131.48 43.57 C 134.58 42.43 138.74 44.32 138.71 47.93 C 138.82 52.92 139.11 57.97 138.50 62.93 C 137.27 67.49 129.62 67.42 128.45 62.85 C 127.85 58.25 128.22 53.57 128.19 48.94 C 128.02 46.66 129.23 44.31 131.48 43.57 M 131.98 46.82 C 131.47 51.54 131.63 56.30 131.75 61.03 C 131.41 63.02 134.54 63.94 135.04 61.87 C 135.55 56.91 135.38 51.84 135.03 46.86 C 134.26 46.85 132.74 46.83 131.98 46.82 Z" />
<path fill="#ffffff" opacity="1.00" d=" M 170.00 43.56 C 171.25 43.53 172.51 43.50 173.76 43.46 C 173.73 49.62 173.43 55.80 173.75 61.95 C 174.48 64.03 177.52 63.07 177.21 61.03 C 177.28 55.19 177.11 49.34 177.11 43.50 C 178.30 43.51 179.49 43.50 180.68 43.49 C 180.55 48.95 180.57 54.41 180.56 59.86 C 180.45 61.62 180.50 63.70 179.06 64.97 C 176.33 67.65 170.57 66.21 170.28 62.11 C 169.85 55.94 170.09 49.74 170.00 43.56 Z" />
<path fill="#ffffff" opacity="1.00" d=" M 199.32 43.46 C 201.40 43.39 203.81 43.00 205.46 44.62 C 207.11 46.39 206.75 48.99 207.09 51.20 C 206.22 51.20 204.48 51.20 203.61 51.20 C 203.95 49.14 203.11 44.81 200.38 47.26 C 199.69 51.47 200.17 55.80 200.07 60.07 C 200.05 61.13 200.36 63.58 201.98 62.91 C 204.52 62.72 203.12 59.23 203.54 57.61 C 204.42 57.62 206.19 57.63 207.08 57.64 C 206.81 59.79 207.07 62.11 206.10 64.12 C 203.87 67.80 196.69 66.72 196.69 61.97 C 196.39 57.32 196.48 52.64 196.64 47.98 C 196.47 46.01 198.11 44.75 199.32 43.46 Z" />
<path fill="#ffffff" opacity="1.00" d=" M 209.01 43.55 C 210.22 43.53 211.43 43.51 212.65 43.48 C 212.61 46.57 212.63 49.65 212.63 52.73 C 213.51 52.73 215.28 52.74 216.17 52.74 C 216.13 49.65 216.15 46.57 216.13 43.49 C 217.39 43.50 218.66 43.52 219.93 43.52 C 219.92 51.01 219.93 58.51 219.93 66.00 C 218.66 66.00 217.40 66.00 216.14 66.00 C 216.14 62.67 216.14 59.33 216.14 56.00 C 215.26 56.00 213.51 56.00 212.63 56.00 C 212.63 59.33 212.62 62.66 212.63 65.99 C 211.42 66.00 210.21 66.00 209.00 66.00 C 209.00 58.52 208.99 51.03 209.01 43.55 Z" />
<path fill="#ffffff" opacity="1.00" d=" M 91.96 43.53 C 95.34 43.53 98.72 43.53 102.10 43.54 C 101.99 45.12 102.05 46.76 101.36 48.24 C 99.42 53.09 97.45 57.94 95.47 62.78 C 97.64 62.76 99.82 62.76 102.00 62.76 C 102.00 63.57 102.00 65.19 102.00 66.00 C 98.49 66.00 94.98 66.01 91.48 65.99 C 91.95 59.25 95.81 53.32 97.94 47.00 C 95.92 46.99 93.91 46.96 91.90 46.93 C 91.91 46.08 91.94 44.38 91.96 43.53 Z" />
<path fill="#ffffff" opacity="1.00" d=" M 103.92 43.53 C 107.14 43.53 110.37 43.55 113.59 43.50 C 113.59 44.37 113.59 46.09 113.59 46.95 C 111.56 46.94 109.52 46.93 107.49 46.92 C 107.49 48.85 107.48 50.79 107.48 52.73 C 109.05 52.73 110.62 52.73 112.19 52.74 C 112.21 53.55 112.26 55.18 112.28 56.00 C 110.68 56.00 109.08 56.00 107.49 56.00 C 107.49 58.25 107.48 60.51 107.48 62.76 C 109.52 62.76 111.55 62.76 113.58 62.75 C 113.58 63.57 113.58 65.19 113.58 66.00 C 110.34 66.00 107.11 66.00 103.88 66.00 C 103.90 58.51 103.83 51.02 103.92 43.53 Z" />
<path fill="#ffffff" opacity="1.00" d=" M 115.42 65.99 C 115.42 58.50 115.45 51.01 115.41 43.51 C 118.50 43.87 122.29 42.81 124.84 45.07 C 126.61 47.87 126.55 52.22 123.90 54.50 C 127.35 57.36 125.32 62.27 126.31 66.08 C 125.18 65.69 122.48 66.78 122.52 64.88 C 122.39 62.15 122.50 59.41 122.15 56.70 C 121.38 56.62 119.83 56.46 119.05 56.38 C 119.03 59.58 119.04 62.79 119.03 66.00 C 117.83 66.00 116.63 66.00 115.42 65.99 M 119.04 46.83 C 119.03 48.98 119.03 51.13 119.05 53.29 C 120.10 53.03 121.52 53.25 122.18 52.19 C 122.75 50.58 122.33 48.85 122.16 47.21 C 121.38 47.12 119.82 46.92 119.04 46.83 Z" />
<path fill="#ffffff" opacity="1.00" d=" M 146.19 43.45 C 147.46 43.49 148.73 43.53 150.00 43.56 C 150.00 49.97 149.99 56.37 150.00 62.78 C 151.91 62.77 153.82 62.75 155.73 62.72 C 155.72 63.54 155.71 65.18 155.71 66.00 C 152.54 66.00 149.37 66.00 146.21 66.00 C 146.20 58.48 146.24 50.97 146.19 43.45 Z" />
<path fill="#ffffff" opacity="1.00" d=" M 160.15 43.51 C 161.75 43.53 163.36 43.54 164.97 43.55 C 166.32 51.02 167.42 58.52 168.68 66.00 C 167.79 66.00 166.00 66.00 165.11 66.00 C 164.75 64.58 164.39 63.15 164.03 61.73 C 163.16 61.73 161.40 61.72 160.53 61.71 C 160.30 63.14 160.09 64.57 159.90 66.00 C 159.04 66.00 157.33 66.00 156.48 66.00 C 157.66 58.50 158.88 51.00 160.15 43.51 M 162.49 47.22 C 162.01 50.96 161.59 54.71 160.93 58.43 C 161.70 58.44 163.22 58.45 163.98 58.46 C 163.28 54.74 163.00 50.97 162.49 47.22 Z" />
<path fill="#ffffff" opacity="1.00" d=" M 183.00 43.55 C 184.51 43.55 186.03 43.54 187.55 43.53 C 188.64 47.49 189.64 51.48 190.84 55.41 C 191.17 51.46 190.92 47.49 190.99 43.53 C 191.79 43.53 193.40 43.54 194.20 43.54 C 194.24 51.03 194.21 58.52 194.22 66.01 C 192.97 66.00 191.71 65.98 190.47 65.97 C 189.07 60.45 187.64 54.93 186.14 49.44 C 186.23 54.96 186.23 60.48 186.22 66.00 C 185.41 66.00 183.80 66.00 183.00 66.00 C 183.00 58.52 183.00 51.03 183.00 43.55 Z" />
<path fill="#ffffff" opacity="1.00" d=" M 222.36 66.00 C 222.35 58.49 222.39 50.99 222.34 43.49 C 225.57 43.55 228.80 43.53 232.03 43.53 C 232.04 44.38 232.07 46.09 232.08 46.94 C 230.05 46.94 228.02 46.94 226.00 46.94 C 226.00 48.87 226.00 50.81 226.00 52.74 C 227.64 52.73 229.27 52.73 230.91 52.71 C 230.91 53.53 230.91 55.18 230.91 56.00 C 229.27 56.00 227.63 56.00 226.00 56.00 C 226.00 58.26 226.00 60.51 226.00 62.77 C 228.02 62.76 230.03 62.76 232.05 62.77 C 232.06 63.57 232.06 65.19 232.07 66.00 C 228.83 66.00 225.59 66.00 222.36 66.00 Z" />
<path fill="#ffffff" opacity="1.00" d=" M 234.00 43.54 C 237.41 43.88 242.11 42.51 244.13 46.18 C 244.81 49.00 244.93 52.48 242.50 54.52 C 245.97 57.37 243.76 62.26 244.94 66.03 C 243.66 66.00 242.38 65.98 241.11 65.95 C 240.39 62.71 242.94 56.16 237.72 56.25 C 237.68 59.50 237.69 62.75 237.70 65.99 C 236.46 66.00 235.23 66.00 234.00 66.00 C 234.00 58.51 234.00 51.03 234.00 43.54 M 237.70 53.35 C 238.74 53.12 239.77 52.89 240.82 52.66 C 241.27 50.04 241.48 46.35 237.71 46.61 C 237.69 48.85 237.69 51.10 237.70 53.35 Z" />
<path fill="#ffffff" opacity="1.00" d=" M 35.27 59.43 C 39.62 55.98 43.78 52.27 48.24 48.97 C 52.24 48.56 56.28 48.93 60.29 48.82 C 54.48 53.56 48.67 58.29 42.87 63.04 C 42.87 64.38 42.87 65.72 42.87 67.06 C 50.48 67.06 58.08 67.06 65.69 67.06 C 65.69 64.52 65.69 61.99 65.69 59.45 C 68.22 59.45 70.75 59.45 73.28 59.45 C 73.28 64.53 73.29 69.60 73.28 74.68 C 60.61 74.67 47.93 74.67 35.26 74.68 C 35.27 69.59 35.25 64.51 35.27 59.43 Z" />
</g>
</svg>
